{
	"asset":{
		"generator":"Khronos glTF Blender I/O v4.2.69",
		"version":"2.0"
	},
	"extensionsUsed":[
		"KHR_materials_specular"
	],
	"scene":0,
	"scenes":[
		{
			"name":"Scene",
			"nodes":[
				0,
				1,
				2,
				3,
				4,
				5,
				6
			]
		}
	],
	"nodes":[
		{
			"mesh":0,
			"name":"Cube_Cube.002",
			"rotation":[
				0.7071068286895752,
				0,
				0,
				0.7071068286895752
			]
		},
		{
			"mesh":1,
			"name":"wheel.001",
			"rotation":[
				0.7071068286895752,
				0,
				0,
				0.7071068286895752
			],
			"scale":[
				0.9183769822120667,
				1,
				1
			]
		},
		{
			"mesh":2,
			"name":"Plane.002",
			"rotation":[
				0.7071068286895752,
				0,
				0,
				0.7071068286895752
			]
		},
		{
			"mesh":3,
			"name":"Plane.003_Plane.004",
			"rotation":[
				0.7071068286895752,
				0,
				0,
				0.7071068286895752
			]
		},
		{
			"mesh":4,
			"name":"wheel",
			"rotation":[
				0.7071068286895752,
				0,
				0,
				0.7071068286895752
			],
			"scale":[
				0.9183769822120667,
				1,
				1
			]
		},
		{
			"mesh":5,
			"name":"wheel.002",
			"rotation":[
				0.7071068286895752,
				0,
				0,
				0.7071068286895752
			],
			"scale":[
				0.9183769822120667,
				1,
				1
			]
		},
		{
			"mesh":6,
			"name":"wheel.003",
			"rotation":[
				0.7071068286895752,
				0,
				0,
				0.7071068286895752
			],
			"scale":[
				0.9183769822120667,
				1,
				1
			]
		}
	],
	"materials":[
		{
			"doubleSided":true,
			"extensions":{
				"KHR_materials_specular":{
					"specularFactor":0
				}
			},
			"name":"Material.001",
			"pbrMetallicRoughness":{
				"baseColorTexture":{
					"index":0
				},
				"metallicFactor":0
			}
		}
	],
	"meshes":[
		{
			"name":"Cube_Cube.002",
			"primitives":[
				{
					"attributes":{
						"POSITION":0,
						"NORMAL":1,
						"TEXCOORD_0":2
					},
					"indices":3,
					"material":0
				}
			]
		},
		{
			"name":"Cylinder.001_Cylinder.002",
			"primitives":[
				{
					"attributes":{
						"POSITION":4,
						"NORMAL":5,
						"TEXCOORD_0":6
					},
					"indices":7,
					"material":0
				}
			]
		},
		{
			"name":"Plane.002",
			"primitives":[
				{
					"attributes":{
						"POSITION":8,
						"NORMAL":9,
						"TEXCOORD_0":10
					},
					"indices":11,
					"material":0
				}
			]
		},
		{
			"name":"Plane.003_Plane.004",
			"primitives":[
				{
					"attributes":{
						"POSITION":12,
						"NORMAL":13,
						"TEXCOORD_0":14
					},
					"indices":15,
					"material":0
				}
			]
		},
		{
			"name":"Cylinder.001_Cylinder.001",
			"primitives":[
				{
					"attributes":{
						"POSITION":16,
						"NORMAL":17,
						"TEXCOORD_0":18
					},
					"indices":19,
					"material":0
				}
			]
		},
		{
			"name":"Cylinder.001_Cylinder.003",
			"primitives":[
				{
					"attributes":{
						"POSITION":20,
						"NORMAL":21,
						"TEXCOORD_0":22
					},
					"indices":23,
					"material":0
				}
			]
		},
		{
			"name":"Cylinder.001_Cylinder.004",
			"primitives":[
				{
					"attributes":{
						"POSITION":24,
						"NORMAL":25,
						"TEXCOORD_0":26
					},
					"indices":27,
					"material":0
				}
			]
		}
	],
	"textures":[
		{
			"sampler":0,
			"source":0
		}
	],
	"images":[
		{
			"mimeType":"image/png",
			"name":"r32_pixel_art_texture",
			"uri":"r32_pixel_art_texture.png"
		}
	],
	"accessors":[
		{
			"bufferView":0,
			"componentType":5126,
			"count":104,
			"max":[
				1.4112299680709839,
				1.059743046760559,
				-0.5249680280685425
			],
			"min":[
				-1.4112299680709839,
				0.7413910031318665,
				-0.7863069772720337
			],
			"type":"VEC3"
		},
		{
			"bufferView":1,
			"componentType":5126,
			"count":104,
			"type":"VEC3"
		},
		{
			"bufferView":2,
			"componentType":5126,
			"count":104,
			"type":"VEC2"
		},
		{
			"bufferView":3,
			"componentType":5123,
			"count":156,
			"type":"SCALAR"
		},
		{
			"bufferView":4,
			"componentType":5126,
			"count":110,
			"max":[
				1.385903000831604,
				2.93864107131958,
				0.7956269979476929
			],
			"min":[
				0.892458975315094,
				1.9435360431671143,
				-0.17670199275016785
			],
			"type":"VEC3"
		},
		{
			"bufferView":5,
			"componentType":5126,
			"count":110,
			"type":"VEC3"
		},
		{
			"bufferView":6,
			"componentType":5126,
			"count":110,
			"type":"VEC2"
		},
		{
			"bufferView":7,
			"componentType":5123,
			"count":204,
			"type":"SCALAR"
		},
		{
			"bufferView":8,
			"componentType":5126,
			"count":1348,
			"max":[
				1.4022330045700073,
				3.925278902053833,
				0.5933570265769958
			],
			"min":[
				-1.4022330045700073,
				-3.0560379028320312,
				-1.1840120553970337
			],
			"type":"VEC3"
		},
		{
			"bufferView":9,
			"componentType":5126,
			"count":1348,
			"type":"VEC3"
		},
		{
			"bufferView":10,
			"componentType":5126,
			"count":1348,
			"type":"VEC2"
		},
		{
			"bufferView":11,
			"componentType":5123,
			"count":2130,
			"type":"SCALAR"
		},
		{
			"bufferView":12,
			"componentType":5126,
			"count":48,
			"max":[
				0.8413749933242798,
				1.8414009809494019,
				-0.5106440186500549
			],
			"min":[
				-0.8368369936943054,
				-2.0491321086883545,
				-0.7514050006866455
			],
			"type":"VEC3"
		},
		{
			"bufferView":13,
			"componentType":5126,
			"count":48,
			"type":"VEC3"
		},
		{
			"bufferView":14,
			"componentType":5126,
			"count":48,
			"type":"VEC2"
		},
		{
			"bufferView":15,
			"componentType":5123,
			"count":72,
			"type":"SCALAR"
		},
		{
			"bufferView":16,
			"componentType":5126,
			"count":110,
			"max":[
				1.4106630086898804,
				-1.0548059940338135,
				0.7956269979476929
			],
			"min":[
				0.917218029499054,
				-2.0499110221862793,
				-0.17670199275016785
			],
			"type":"VEC3"
		},
		{
			"bufferView":17,
			"componentType":5126,
			"count":110,
			"type":"VEC3"
		},
		{
			"bufferView":18,
			"componentType":5126,
			"count":110,
			"type":"VEC2"
		},
		{
			"bufferView":19,
			"componentType":5123,
			"count":204,
			"type":"SCALAR"
		},
		{
			"bufferView":20,
			"componentType":5126,
			"count":110,
			"max":[
				-0.892458975315094,
				2.93864107131958,
				0.7956269979476929
			],
			"min":[
				-1.385903000831604,
				1.9435360431671143,
				-0.17670199275016785
			],
			"type":"VEC3"
		},
		{
			"bufferView":21,
			"componentType":5126,
			"count":110,
			"type":"VEC3"
		},
		{
			"bufferView":22,
			"componentType":5126,
			"count":110,
			"type":"VEC2"
		},
		{
			"bufferView":23,
			"componentType":5123,
			"count":204,
			"type":"SCALAR"
		},
		{
			"bufferView":24,
			"componentType":5126,
			"count":110,
			"max":[
				-0.917218029499054,
				-1.0548059940338135,
				0.7956269979476929
			],
			"min":[
				-1.4106630086898804,
				-2.0499110221862793,
				-0.17670199275016785
			],
			"type":"VEC3"
		},
		{
			"bufferView":25,
			"componentType":5126,
			"count":110,
			"type":"VEC3"
		},
		{
			"bufferView":26,
			"componentType":5126,
			"count":110,
			"type":"VEC2"
		},
		{
			"bufferView":27,
			"componentType":5123,
			"count":204,
			"type":"SCALAR"
		}
	],
	"bufferViews":[
		{
			"buffer":0,
			"byteLength":1248,
			"byteOffset":0,
			"target":34962
		},
		{
			"buffer":0,
			"byteLength":1248,
			"byteOffset":1248,
			"target":34962
		},
		{
			"buffer":0,
			"byteLength":832,
			"byteOffset":2496,
			"target":34962
		},
		{
			"buffer":0,
			"byteLength":312,
			"byteOffset":3328,
			"target":34963
		},
		{
			"buffer":0,
			"byteLength":1320,
			"byteOffset":3640,
			"target":34962
		},
		{
			"buffer":0,
			"byteLength":1320,
			"byteOffset":4960,
			"target":34962
		},
		{
			"buffer":0,
			"byteLength":880,
			"byteOffset":6280,
			"target":34962
		},
		{
			"buffer":0,
			"byteLength":408,
			"byteOffset":7160,
			"target":34963
		},
		{
			"buffer":0,
			"byteLength":16176,
			"byteOffset":7568,
			"target":34962
		},
		{
			"buffer":0,
			"byteLength":16176,
			"byteOffset":23744,
			"target":34962
		},
		{
			"buffer":0,
			"byteLength":10784,
			"byteOffset":39920,
			"target":34962
		},
		{
			"buffer":0,
			"byteLength":4260,
			"byteOffset":50704,
			"target":34963
		},
		{
			"buffer":0,
			"byteLength":576,
			"byteOffset":54964,
			"target":34962
		},
		{
			"buffer":0,
			"byteLength":576,
			"byteOffset":55540,
			"target":34962
		},
		{
			"buffer":0,
			"byteLength":384,
			"byteOffset":56116,
			"target":34962
		},
		{
			"buffer":0,
			"byteLength":144,
			"byteOffset":56500,
			"target":34963
		},
		{
			"buffer":0,
			"byteLength":1320,
			"byteOffset":56644,
			"target":34962
		},
		{
			"buffer":0,
			"byteLength":1320,
			"byteOffset":57964,
			"target":34962
		},
		{
			"buffer":0,
			"byteLength":880,
			"byteOffset":59284,
			"target":34962
		},
		{
			"buffer":0,
			"byteLength":408,
			"byteOffset":60164,
			"target":34963
		},
		{
			"buffer":0,
			"byteLength":1320,
			"byteOffset":60572,
			"target":34962
		},
		{
			"buffer":0,
			"byteLength":1320,
			"byteOffset":61892,
			"target":34962
		},
		{
			"buffer":0,
			"byteLength":880,
			"byteOffset":63212,
			"target":34962
		},
		{
			"buffer":0,
			"byteLength":408,
			"byteOffset":64092,
			"target":34963
		},
		{
			"buffer":0,
			"byteLength":1320,
			"byteOffset":64500,
			"target":34962
		},
		{
			"buffer":0,
			"byteLength":1320,
			"byteOffset":65820,
			"target":34962
		},
		{
			"buffer":0,
			"byteLength":880,
			"byteOffset":67140,
			"target":34962
		},
		{
			"buffer":0,
			"byteLength":408,
			"byteOffset":68020,
			"target":34963
		}
	],
	"samplers":[
		{
			"magFilter":9729,
			"minFilter":9987
		}
	],
	"buffers":[
		{
			"byteLength":68428,
			"uri":"car.bin"
		}
	]
}
